<?xml version="1.0" encoding="iso-8859-1"?>
<!-- Generator: Adobe Illustrator 19.0.0, SVG Export Plug-In . SVG Version: 6.00 Build 0)  -->
<svg version="1.1" id="Layer_1" xmlns="http://www.w3.org/2000/svg" xmlns:xlink="http://www.w3.org/1999/xlink" x="0px" y="0px"
	 viewBox="0 0 512 512" style="enable-background:new 0 0 512 512;" xml:space="preserve">
<g>
	<g>
		<path fill="#2b7a77" d="M482.007,150.748c-17.878-35.045-43.51-66.336-74.386-90.902c1.059-3.67,1.638-7.541,1.638-11.548
			c0-23.006-18.718-41.723-41.723-41.723c-11.746,0-22.367,4.887-29.957,12.726C305.267,6.493,271.13,0,236,0
			c-5.632,0-10.199,4.566-10.199,10.199v30.029c-59.209,2.501-114.517,26.732-156.678,68.894C24.548,153.697,0,212.961,0,276
			s24.548,122.303,69.122,166.877C113.698,487.452,172.962,512,236,512s122.304-24.548,166.878-69.123
			c42.161-42.161,66.392-97.469,68.894-156.678h30.029c5.632,0,10.199-4.566,10.199-10.199
			C512,231.903,501.909,189.763,482.007,150.748z M367.536,26.973c11.759,0,21.325,9.566,21.325,21.324s-9.566,21.325-21.325,21.325
			c-11.759,0-21.324-9.566-21.324-21.325S355.778,26.973,367.536,26.973z M236,491.602c-118.884,0-215.602-96.719-215.602-215.602
			c0-115.465,91.234-210.023,205.403-215.364V276c0,5.633,4.567,10.199,10.199,10.199h215.364
			C446.023,400.367,351.467,491.602,236,491.602z M246.2,265.8V20.596c27.963,1.087,55.168,6.668,81.122,16.611
			c-0.976,3.534-1.508,7.25-1.508,11.09c0,23.006,18.718,41.723,41.723,41.723c11.581,0,22.072-4.746,29.639-12.391
			c57.489,46.661,91.37,114.303,94.229,188.171H246.2z"/>
	</g>
</g>
<g>
	<g>
		<path fill="#2b7a77" d="M447.529,218.729h-19.238v-57.973c0-33.5-27.254-60.755-60.754-60.755c-33.463,0-60.686,27.254-60.686,60.755v57.973
			h-19.238c-5.632,0-10.199,4.566-10.199,10.199c0,5.633,4.567,10.199,10.199,10.199h159.915c5.632,0,10.199-4.566,10.199-10.199
			C457.728,223.295,453.161,218.729,447.529,218.729z M407.892,218.729h-80.643v-57.973c0-22.253,18.073-40.356,40.288-40.356
			c22.252,0,40.355,18.104,40.355,40.356V218.729z"/>
	</g>
</g>
<g>
	<g>
		<path fill="#2b7a77" d="M237.487,368.389H218.25v-57.974c0-33.5-27.254-60.754-60.754-60.754c-33.463,0-60.686,27.254-60.686,60.754v57.974H77.57
			c-5.632,0-10.199,4.566-10.199,10.199s4.567,10.199,10.199,10.199h159.917c5.632,0,10.199-4.566,10.199-10.199
			S243.119,368.389,237.487,368.389z M197.85,368.389h-80.643v-57.974c0-22.252,18.073-40.355,40.288-40.355
			c22.252,0,40.355,18.104,40.355,40.355V368.389z"/>
	</g>
</g>
<g>
	<g>
		<path fill="#2b7a77" d="M157.495,156.235c-23.005,0-41.723,18.718-41.723,41.723s18.717,41.723,41.723,41.723
			c23.006,0,41.723-18.718,41.723-41.723S180.5,156.235,157.495,156.235z M157.495,219.283c-11.759,0-21.325-9.566-21.325-21.325
			s9.566-21.324,21.325-21.324c11.759,0,21.324,9.566,21.324,21.324S169.254,219.283,157.495,219.283z"/>
	</g>
</g>
<g>
	<g>
		<path fill="#2b7a77" d="M276.38,368.389h-5.081c-5.632,0-10.199,4.566-10.199,10.199s4.567,10.199,10.199,10.199h5.081
			c5.632,0,10.199-4.566,10.199-10.199S282.012,368.389,276.38,368.389z"/>
	</g>
</g>
<g>
</g>
<g>
</g>
<g>
</g>
<g>
</g>
<g>
</g>
<g>
</g>
<g>
</g>
<g>
</g>
<g>
</g>
<g>
</g>
<g>
</g>
<g>
</g>
<g>
</g>
<g>
</g>
<g>
</g>
</svg>
