<?xml version="1.0" encoding="iso-8859-1"?>
<!-- Generator: Adobe Illustrator 19.0.0, SVG Export Plug-In . SVG Version: 6.00 Build 0)  -->
<svg version="1.1" id="Capa_1" xmlns="http://www.w3.org/2000/svg" xmlns:xlink="http://www.w3.org/1999/xlink" x="0px" y="0px"
	 viewBox="0 0 502.642 502.642" style="enable-background:new 0 0 502.642 502.642;" xml:space="preserve">
<g>
	<g>
		<g>
			<path fill="#2b7a77" d="M193.695,242.758c0,0,133.868-10.397,150.607-64.82c16.739-54.423-99.614-50.238-101.706-106.775
				C241.258,34.6,294.193,0,294.193,0s-117.216,20.924-98.32,94.221c13.633,53.194,71.097,52.266,81.559,77.396
				C287.873,196.747,193.695,242.758,193.695,242.758z"/>
			<path fill="#2b7a77" d="M430.283,262.969H72.359c-0.259,4.551-0.582,9.017-0.582,13.697c0,78.431,33.888,147.026,84.687,185.703v40.273h189.758
				V462.37c50.778-38.676,84.644-107.315,84.644-185.703C430.866,271.986,430.391,267.521,430.283,262.969z"/>
		</g>
	</g>
	<g>
	</g>
	<g>
	</g>
	<g>
	</g>
	<g>
	</g>
	<g>
	</g>
	<g>
	</g>
	<g>
	</g>
	<g>
	</g>
	<g>
	</g>
	<g>
	</g>
	<g>
	</g>
	<g>
	</g>
	<g>
	</g>
	<g>
	</g>
	<g>
	</g>
</g>
<g>
</g>
<g>
</g>
<g>
</g>
<g>
</g>
<g>
</g>
<g>
</g>
<g>
</g>
<g>
</g>
<g>
</g>
<g>
</g>
<g>
</g>
<g>
</g>
<g>
</g>
<g>
</g>
<g>
</g>
</svg>
